<svg width="55" height="55" viewBox="0 0 55 55" fill="none" xmlns="http://www.w3.org/2000/svg">
<rect width="55" height="55" rx="8" fill="#3794FE"/>
<g clip-path="url(#clip0_4147_4211)">
<path d="M46.274 14.0554L43.6246 11.7004C42.7379 10.9124 41.2952 10.9124 40.4085 11.7004C40.3129 11.7889 40.2601 11.9072 40.2614 12.0299C40.2628 12.1526 40.3182 12.2699 40.4158 12.3567C40.5134 12.4434 40.6454 12.4927 40.7835 12.494C40.9215 12.4952 41.0546 12.4483 41.1541 12.3632C41.6297 11.9405 42.4033 11.9405 42.879 12.3632L45.5284 14.7182C46.004 15.141 46.004 15.8289 45.5285 16.2515L43.6089 17.9577L39.2345 14.0693L39.6155 13.7307C39.6645 13.6872 39.7033 13.6355 39.7298 13.5787C39.7563 13.5218 39.77 13.4609 39.77 13.3993C39.77 13.3378 39.7563 13.2769 39.7299 13.22C39.7034 13.1632 39.6646 13.1115 39.6156 13.068C39.5667 13.0245 39.5085 12.9899 39.4446 12.9664C39.3806 12.9428 39.3121 12.9307 39.2429 12.9307C39.1736 12.9307 39.1051 12.9428 39.0411 12.9664C38.9772 12.9899 38.919 13.0244 38.8701 13.0679L31.6759 19.4626C31.3399 19.3436 30.9971 19.2402 30.6489 19.1529L30.2504 16.657C30.2326 16.5452 30.1699 16.4429 30.074 16.3689C29.9781 16.2949 29.8554 16.2542 29.7284 16.2542H25.872C25.745 16.2542 25.6223 16.295 25.5264 16.369C25.4305 16.4429 25.3678 16.5452 25.35 16.657L24.9514 19.1529C24.1563 19.3516 23.3906 19.6335 22.6704 19.9928L20.4029 18.4785C20.3014 18.4107 20.1758 18.3778 20.0491 18.3857C19.9224 18.3936 19.8033 18.4419 19.7134 18.5217L16.9865 20.9456C16.8967 21.0254 16.8423 21.1314 16.8334 21.244C16.8244 21.3566 16.8615 21.4682 16.9378 21.5585L18.6415 23.574C18.2372 24.2142 17.92 24.8949 17.6965 25.6016L14.8885 25.9559C14.7628 25.9718 14.6477 26.0275 14.5645 26.1127C14.4813 26.198 14.4354 26.307 14.4354 26.4199V29.8479C14.4354 29.9607 14.4813 30.0698 14.5645 30.1551C14.6478 30.2403 14.7628 30.296 14.8885 30.3119L17.6967 30.6661C17.7952 30.9754 17.9116 31.28 18.0454 31.5786L14.0093 35.1663C13.9408 35.2274 13.8927 35.304 13.8702 35.3879L12.3965 39.094L11.0917 42.3756C11.0585 42.459 11.0526 42.5491 11.0746 42.6353C11.0965 42.7216 11.1455 42.8006 11.2159 42.8632C11.2863 42.9257 11.3752 42.9692 11.4722 42.9888C11.5693 43.0083 11.6706 43.003 11.7644 42.9735L19.6256 40.5037C19.7199 40.4838 19.8062 40.441 19.8749 40.38L23.9053 36.7974C24.2475 36.9193 24.5966 37.0251 24.9513 37.1143L25.3499 39.6105C25.3678 39.7222 25.4304 39.8245 25.5263 39.8985C25.6222 39.9725 25.7449 40.0132 25.8719 40.0132H29.7283C29.8553 40.0132 29.978 39.9725 30.0739 39.8985C30.1698 39.8245 30.2325 39.7222 30.2503 39.6105L30.6489 37.1145C31.444 36.9159 32.2097 36.6339 32.9299 36.2747L35.1974 37.789C35.299 37.8567 35.4246 37.8897 35.5513 37.8817C35.6779 37.8738 35.7971 37.8255 35.8869 37.7457L38.6138 35.3217C38.7036 35.2419 38.7579 35.136 38.7669 35.0234C38.7758 34.9108 38.7387 34.7991 38.6624 34.7089L36.9588 32.6934C37.363 32.0532 37.6802 31.3726 37.9037 30.6658L40.7116 30.3115C40.8374 30.2957 40.9524 30.24 41.0357 30.1548C41.1189 30.0695 41.1648 29.9604 41.1647 29.8475V26.4196C41.1647 26.3067 41.1189 26.1977 41.0356 26.1124C40.9524 26.0272 40.8374 25.9715 40.7116 25.9556L37.9037 25.6013C37.8035 25.2858 37.6846 24.9753 37.5475 24.671L46.2741 16.9142C47.1606 16.1261 47.1606 14.8437 46.274 14.0554ZM12.4535 41.763L13.1119 40.107L14.3165 41.1777L12.4535 41.763ZM15.4182 40.8316L13.5013 39.1278L14.6031 36.3569L18.5355 39.8522L15.4182 40.8316ZM40.1103 26.8265V29.4409L37.4088 29.7817C37.3045 29.7949 37.207 29.8355 37.1289 29.8984C37.0508 29.9612 36.9957 30.0435 36.9707 30.1344C36.7432 30.9624 36.374 31.7545 35.8762 32.483C35.8216 32.563 35.7951 32.6558 35.8003 32.7493C35.8055 32.8428 35.8421 32.9328 35.9054 33.0076L37.5445 34.9467L35.4649 36.7954L33.2834 35.3384C33.1992 35.2821 33.098 35.2495 32.9928 35.2449C32.8876 35.2403 32.7832 35.2638 32.6932 35.3124C31.8736 35.7549 30.9826 36.083 30.0511 36.2853C29.9487 36.3075 29.8563 36.3565 29.7855 36.4259C29.7148 36.4953 29.6691 36.5819 29.6543 36.6746L29.2709 39.076H26.3297L25.9463 36.6746C25.9315 36.5819 25.8858 36.4953 25.8151 36.4259C25.7444 36.3565 25.6519 36.3075 25.5495 36.2853C25.271 36.2246 24.9958 36.1525 24.7249 36.069L27.6064 33.5078C27.6737 33.51 27.7376 33.5111 27.8004 33.5111C31.1361 33.5111 33.85 31.0988 33.85 28.1337C33.85 28.0037 33.8429 27.8753 33.8327 27.7476L33.8326 27.7445C33.8323 27.7412 33.8318 27.738 33.8316 27.7348C33.8251 27.6555 33.8166 27.5763 33.8062 27.4973L33.806 27.496C33.4663 24.9539 31.1248 22.951 28.2256 22.7709C28.2205 22.7706 28.2155 22.77 28.2104 22.7697L28.2071 22.7696C28.0717 22.7611 27.936 22.7566 27.8003 22.7561C24.4645 22.7561 21.7507 25.1684 21.7507 28.1335C21.7507 28.1819 21.7516 28.231 21.7535 28.2826L20.94 29.0057C20.8909 29.0492 20.8521 29.1009 20.8256 29.1578C20.7991 29.2146 20.7855 29.2756 20.7856 29.3372C20.7854 29.4068 20.8028 29.4756 20.8365 29.5385C20.8701 29.6014 20.9192 29.6568 20.9801 29.7007C21.0534 29.7536 21.1413 29.7881 21.2347 29.8006C21.3282 29.813 21.4236 29.8029 21.5112 29.7714C21.5765 29.7479 21.6358 29.7129 21.6856 29.6685L28.3735 23.7237C30.6559 23.9567 32.4856 25.5752 32.7586 27.6027L31.1081 29.0697C31.0117 29.158 30.9582 29.2765 30.9593 29.3996C30.9603 29.5227 31.0158 29.6405 31.1137 29.7275C31.2116 29.8145 31.3441 29.8638 31.4826 29.8648C31.621 29.8657 31.7544 29.8181 31.8537 29.7324L32.7042 28.9764C32.3192 30.75 30.7437 32.1505 28.7483 32.4928L30.357 31.0629C30.4534 30.9746 30.5069 30.8561 30.5059 30.733C30.5048 30.6099 30.4494 30.4921 30.3515 30.4051C30.2535 30.3181 30.121 30.2688 29.9826 30.2678C29.8441 30.2669 29.7108 30.3144 29.6114 30.4002L19.5022 39.386L15.1277 35.4976L20.1886 30.999C20.2377 30.9556 20.2766 30.904 20.3031 30.8471C20.3296 30.7902 20.3431 30.7293 20.343 30.6677C20.3431 30.6062 20.3295 30.5452 20.303 30.4883C20.2765 30.4315 20.2376 30.3798 20.1886 30.3364C20.1389 30.292 20.0795 30.257 20.0142 30.2335C19.935 30.205 19.8491 30.194 19.7641 30.2014C19.679 30.2089 19.5972 30.2346 19.5258 30.2764C19.496 30.2938 19.4682 30.314 19.443 30.3364L18.8658 30.8495C18.7749 30.6144 18.696 30.3759 18.6294 30.1345C18.6044 30.0435 18.5493 29.9613 18.4712 29.8985C18.3932 29.8356 18.2957 29.795 18.1915 29.7818L15.4899 29.441V26.8266L18.1915 26.4857C18.2957 26.4726 18.3932 26.432 18.4712 26.3691C18.5493 26.3063 18.6044 26.2241 18.6294 26.1332C18.857 25.3052 19.2261 24.5131 19.7239 23.7846C19.7786 23.7046 19.805 23.6118 19.7998 23.5183C19.7946 23.4248 19.758 23.3348 19.6947 23.2599L18.0555 21.3208L20.1353 19.4722L22.3168 20.9292C22.401 20.9854 22.5023 21.0179 22.6075 21.0226C22.7127 21.0272 22.8171 21.0037 22.9071 20.9551C23.7266 20.5126 24.6177 20.1845 25.5492 19.9822C25.6515 19.96 25.744 19.911 25.8147 19.8416C25.8854 19.7722 25.9311 19.6856 25.9459 19.5929L26.3294 17.1915H29.2705L29.6539 19.5928C29.6687 19.6855 29.7144 19.7721 29.7851 19.8415C29.8558 19.9109 29.9483 19.9599 30.0506 19.9821C30.576 20.0968 31.0893 20.2516 31.5847 20.445L31.5865 20.4458C31.6829 20.4834 31.7783 20.5222 31.8726 20.5621L31.8779 20.5644C31.9672 20.6023 32.0553 20.6414 32.1424 20.6812C32.166 20.6921 32.1893 20.7035 32.2129 20.7145C32.2802 20.746 32.3472 20.7778 32.413 20.8104C32.5072 20.8572 32.6005 20.9054 32.6929 20.955C32.783 21.0037 32.8873 21.0272 32.9925 21.0225C33.0978 21.0179 33.199 20.9853 33.2832 20.929L35.4648 19.472L37.5444 21.3205L35.9053 23.2597C35.8419 23.3346 35.8053 23.4246 35.8001 23.5181C35.7949 23.6117 35.8214 23.7045 35.8761 23.7845C35.9317 23.8659 35.985 23.9482 36.0374 24.0311C36.0725 24.087 36.1066 24.1437 36.1405 24.2008C36.1543 24.2237 36.1682 24.2465 36.1816 24.2695C36.225 24.3439 36.267 24.4189 36.3078 24.4944L36.3133 24.5046C36.3574 24.5864 36.4 24.6688 36.4411 24.7519C36.4415 24.7526 36.4421 24.7533 36.4425 24.7541C36.6635 25.1992 36.8402 25.6606 36.9707 26.1331C36.9957 26.2241 37.0508 26.3063 37.1289 26.3692C37.207 26.432 37.3045 26.4726 37.4088 26.4858L40.1103 26.8265ZM26.8189 23.78L22.9022 27.2616C23.2959 25.5115 24.8502 24.13 26.8189 23.78ZM37.0754 23.7653C37.0374 23.7011 36.9985 23.6373 36.9588 23.5739L38.6624 21.5584C38.7386 21.4681 38.7757 21.3564 38.7668 21.2438C38.7578 21.1313 38.7035 21.0253 38.6137 20.9455L35.8869 18.5216C35.7971 18.4418 35.6779 18.3934 35.5512 18.3855C35.4245 18.3775 35.2989 18.4105 35.1974 18.4784L32.9299 19.9927C32.8527 19.9544 32.775 19.917 32.6968 19.8805L35.7188 17.1943L40.0932 21.0827L37.0754 23.7653ZM40.839 20.4199L36.4646 16.5316L38.4889 14.7321L42.8633 18.6205L40.839 20.4199Z" fill="white"/>
<path d="M31.2959 21.9531C32.3026 22.3111 34.4368 23.5424 34.9201 25.6041" stroke="white" stroke-width="4" stroke-linecap="round"/>
<ellipse cx="35.161" cy="27.3221" rx="0.483221" ry="0.42953" fill="white"/>
<path d="M46.274 14.0554L43.6246 11.7004C42.7379 10.9124 41.2952 10.9124 40.4085 11.7004C40.3129 11.7889 40.2601 11.9072 40.2614 12.0299C40.2628 12.1526 40.3182 12.2699 40.4158 12.3567C40.5134 12.4434 40.6454 12.4927 40.7835 12.494C40.9215 12.4952 41.0546 12.4483 41.1541 12.3632C41.6297 11.9405 42.4033 11.9405 42.879 12.3632L45.5284 14.7182C46.004 15.141 46.004 15.8289 45.5285 16.2515L43.6089 17.9577L39.2345 14.0693L39.6155 13.7307C39.6645 13.6872 39.7033 13.6355 39.7298 13.5787C39.7563 13.5218 39.77 13.4609 39.77 13.3993C39.77 13.3378 39.7563 13.2769 39.7299 13.22C39.7034 13.1632 39.6646 13.1115 39.6156 13.068C39.5667 13.0245 39.5085 12.9899 39.4446 12.9664C39.3806 12.9428 39.3121 12.9307 39.2429 12.9307C39.1736 12.9307 39.1051 12.9428 39.0411 12.9664C38.9772 12.9899 38.919 13.0244 38.8701 13.0679L31.6759 19.4626C31.3399 19.3436 30.9971 19.2402 30.6489 19.1529L30.2504 16.657C30.2326 16.5452 30.1699 16.4429 30.074 16.3689C29.9781 16.2949 29.8554 16.2542 29.7284 16.2542H25.872C25.745 16.2542 25.6223 16.295 25.5264 16.369C25.4305 16.4429 25.3678 16.5452 25.35 16.657L24.9514 19.1529C24.1563 19.3516 23.3906 19.6335 22.6704 19.9928L20.4029 18.4785C20.3014 18.4107 20.1758 18.3778 20.0491 18.3857C19.9224 18.3936 19.8033 18.4419 19.7134 18.5217L16.9865 20.9456C16.8967 21.0254 16.8423 21.1314 16.8334 21.244C16.8244 21.3566 16.8615 21.4682 16.9378 21.5585L18.6415 23.574C18.2372 24.2142 17.92 24.8949 17.6965 25.6016L14.8885 25.9559C14.7628 25.9718 14.6477 26.0275 14.5645 26.1127C14.4813 26.198 14.4354 26.307 14.4354 26.4199V29.8479C14.4354 29.9607 14.4813 30.0698 14.5645 30.1551C14.6478 30.2403 14.7628 30.296 14.8885 30.3119L17.6967 30.6661C17.7952 30.9754 17.9116 31.28 18.0454 31.5786L14.0093 35.1663C13.9408 35.2274 13.8927 35.304 13.8702 35.3879L12.3965 39.094L11.0917 42.3756C11.0585 42.459 11.0526 42.5491 11.0746 42.6353C11.0965 42.7216 11.1455 42.8006 11.2159 42.8632C11.2863 42.9257 11.3752 42.9692 11.4722 42.9888C11.5693 43.0083 11.6706 43.003 11.7644 42.9735L19.6256 40.5037C19.7199 40.4838 19.8062 40.441 19.8749 40.38L23.9053 36.7974C24.2475 36.9193 24.5966 37.0251 24.9513 37.1143L25.3499 39.6105C25.3678 39.7222 25.4304 39.8245 25.5263 39.8985C25.6222 39.9725 25.7449 40.0132 25.8719 40.0132H29.7283C29.8553 40.0132 29.978 39.9725 30.0739 39.8985C30.1698 39.8245 30.2325 39.7222 30.2503 39.6105L30.6489 37.1145C31.444 36.9159 32.2097 36.6339 32.9299 36.2747L35.1974 37.789C35.299 37.8567 35.4246 37.8897 35.5513 37.8817C35.6779 37.8738 35.7971 37.8255 35.8869 37.7457L38.6138 35.3217C38.7036 35.2419 38.7579 35.136 38.7669 35.0234C38.7758 34.9108 38.7387 34.7991 38.6624 34.7089L36.9588 32.6934C37.363 32.0532 37.6802 31.3726 37.9037 30.6658L40.7116 30.3115C40.8374 30.2957 40.9524 30.24 41.0357 30.1548C41.1189 30.0695 41.1648 29.9604 41.1647 29.8475V26.4196C41.1647 26.3067 41.1189 26.1977 41.0356 26.1124C40.9524 26.0272 40.8374 25.9715 40.7116 25.9556L37.9037 25.6013C37.8035 25.2858 37.6846 24.9753 37.5475 24.671L46.2741 16.9142C47.1606 16.1261 47.1606 14.8437 46.274 14.0554ZM12.4535 41.763L13.1119 40.107L14.3165 41.1777L12.4535 41.763ZM15.4182 40.8316L13.5013 39.1278L14.6031 36.3569L18.5355 39.8522L15.4182 40.8316ZM40.1103 26.8265V29.4409L37.4088 29.7817C37.3045 29.7949 37.207 29.8355 37.1289 29.8984C37.0508 29.9612 36.9957 30.0435 36.9707 30.1344C36.7432 30.9624 36.374 31.7545 35.8762 32.483C35.8216 32.563 35.7951 32.6558 35.8003 32.7493C35.8055 32.8428 35.8421 32.9328 35.9054 33.0076L37.5445 34.9467L35.4649 36.7954L33.2834 35.3384C33.1992 35.2821 33.098 35.2495 32.9928 35.2449C32.8876 35.2403 32.7832 35.2638 32.6932 35.3124C31.8736 35.7549 30.9826 36.083 30.0511 36.2853C29.9487 36.3075 29.8563 36.3565 29.7855 36.4259C29.7148 36.4953 29.6691 36.5819 29.6543 36.6746L29.2709 39.076H26.3297L25.9463 36.6746C25.9315 36.5819 25.8858 36.4953 25.8151 36.4259C25.7444 36.3565 25.6519 36.3075 25.5495 36.2853C25.271 36.2246 24.9958 36.1525 24.7249 36.069L27.6064 33.5078C27.6737 33.51 27.7376 33.5111 27.8004 33.5111C31.1361 33.5111 33.85 31.0988 33.85 28.1337C33.85 28.0037 33.8429 27.8753 33.8327 27.7476L33.8326 27.7445C33.8323 27.7412 33.8318 27.738 33.8316 27.7348C33.8251 27.6555 33.8166 27.5763 33.8062 27.4973L33.806 27.496C33.4663 24.9539 31.1248 22.951 28.2256 22.7709C28.2205 22.7706 28.2155 22.77 28.2104 22.7697L28.2071 22.7696C28.0717 22.7611 27.936 22.7566 27.8003 22.7561C24.4645 22.7561 21.7507 25.1684 21.7507 28.1335C21.7507 28.1819 21.7516 28.231 21.7535 28.2826L20.94 29.0057C20.8909 29.0492 20.8521 29.1009 20.8256 29.1578C20.7991 29.2146 20.7855 29.2756 20.7856 29.3372C20.7854 29.4068 20.8028 29.4756 20.8365 29.5385C20.8701 29.6014 20.9192 29.6568 20.9801 29.7007C21.0534 29.7536 21.1413 29.7881 21.2347 29.8006C21.3282 29.813 21.4236 29.8029 21.5112 29.7714C21.5765 29.7479 21.6358 29.7129 21.6856 29.6685L28.3735 23.7237C30.6559 23.9567 32.4856 25.5752 32.7586 27.6027L31.1081 29.0697C31.0117 29.158 30.9582 29.2765 30.9593 29.3996C30.9603 29.5227 31.0158 29.6405 31.1137 29.7275C31.2116 29.8145 31.3441 29.8638 31.4826 29.8648C31.621 29.8657 31.7544 29.8181 31.8537 29.7324L32.7042 28.9764C32.3192 30.75 30.7437 32.1505 28.7483 32.4928L30.357 31.0629C30.4534 30.9746 30.5069 30.8561 30.5059 30.733C30.5048 30.6099 30.4494 30.4921 30.3515 30.4051C30.2535 30.3181 30.121 30.2688 29.9826 30.2678C29.8441 30.2669 29.7108 30.3144 29.6114 30.4002L19.5022 39.386L15.1277 35.4976L20.1886 30.999C20.2377 30.9556 20.2766 30.904 20.3031 30.8471C20.3296 30.7902 20.3431 30.7293 20.343 30.6677C20.3431 30.6062 20.3295 30.5452 20.303 30.4883C20.2765 30.4315 20.2376 30.3798 20.1886 30.3364C20.1389 30.292 20.0795 30.257 20.0142 30.2335C19.935 30.205 19.8491 30.194 19.7641 30.2014C19.679 30.2089 19.5972 30.2346 19.5258 30.2764C19.496 30.2938 19.4682 30.314 19.443 30.3364L18.8658 30.8495C18.7749 30.6144 18.696 30.3759 18.6294 30.1345C18.6044 30.0435 18.5493 29.9613 18.4712 29.8985C18.3932 29.8356 18.2957 29.795 18.1915 29.7818L15.4899 29.441V26.8266L18.1915 26.4857C18.2957 26.4726 18.3932 26.432 18.4712 26.3691C18.5493 26.3063 18.6044 26.2241 18.6294 26.1332C18.857 25.3052 19.2261 24.5131 19.7239 23.7846C19.7786 23.7046 19.805 23.6118 19.7998 23.5183C19.7946 23.4248 19.758 23.3348 19.6947 23.2599L18.0555 21.3208L20.1353 19.4722L22.3168 20.9292C22.401 20.9854 22.5023 21.0179 22.6075 21.0226C22.7127 21.0272 22.8171 21.0037 22.9071 20.9551C23.7266 20.5126 24.6177 20.1845 25.5492 19.9822C25.6515 19.96 25.744 19.911 25.8147 19.8416C25.8854 19.7722 25.9311 19.6856 25.9459 19.5929L26.3294 17.1915H29.2705L29.6539 19.5928C29.6687 19.6855 29.7144 19.7721 29.7851 19.8415C29.8558 19.9109 29.9483 19.9599 30.0506 19.9821C30.576 20.0968 31.0893 20.2516 31.5847 20.445L31.5865 20.4458C31.6829 20.4834 31.7783 20.5222 31.8726 20.5621L31.8779 20.5644C31.9672 20.6023 32.0553 20.6414 32.1424 20.6812C32.166 20.6921 32.1893 20.7035 32.2129 20.7145C32.2802 20.746 32.3472 20.7778 32.413 20.8104C32.5072 20.8572 32.6005 20.9054 32.6929 20.955C32.783 21.0037 32.8873 21.0272 32.9925 21.0225C33.0978 21.0179 33.199 20.9853 33.2832 20.929L35.4648 19.472L37.5444 21.3205L35.9053 23.2597C35.8419 23.3346 35.8053 23.4246 35.8001 23.5181C35.7949 23.6117 35.8214 23.7045 35.8761 23.7845C35.9317 23.8659 35.985 23.9482 36.0374 24.0311C36.0725 24.087 36.1066 24.1437 36.1405 24.2008C36.1543 24.2237 36.1682 24.2465 36.1816 24.2695C36.225 24.3439 36.267 24.4189 36.3078 24.4944L36.3133 24.5046C36.3574 24.5864 36.4 24.6688 36.4411 24.7519C36.4415 24.7526 36.4421 24.7533 36.4425 24.7541C36.6635 25.1992 36.8402 25.6606 36.9707 26.1331C36.9957 26.2241 37.0508 26.3063 37.1289 26.3692C37.207 26.432 37.3045 26.4726 37.4088 26.4858L40.1103 26.8265ZM26.8189 23.78L22.9022 27.2616C23.2959 25.5115 24.8502 24.13 26.8189 23.78ZM37.0754 23.7653C37.0374 23.7011 36.9985 23.6373 36.9588 23.5739L38.6624 21.5584C38.7386 21.4681 38.7757 21.3564 38.7668 21.2438C38.7578 21.1313 38.7035 21.0253 38.6137 20.9455L35.8869 18.5216C35.7971 18.4418 35.6779 18.3934 35.5512 18.3855C35.4245 18.3775 35.2989 18.4105 35.1974 18.4784L32.9299 19.9927C32.8527 19.9544 32.775 19.917 32.6968 19.8805L35.7188 17.1943L40.0932 21.0827L37.0754 23.7653ZM40.839 20.4199L36.4646 16.5316L38.4889 14.7321L42.8633 18.6205L40.839 20.4199Z" fill="white"/>
<path d="M31.2959 21.9531C32.3026 22.3111 34.4368 23.5424 34.9201 25.6041" stroke="white" stroke-width="4" stroke-linecap="round"/>
<ellipse cx="35.161" cy="27.3221" rx="0.483221" ry="0.42953" fill="white"/>
</g>
<defs>
<clipPath id="clip0_4147_4211">
<rect width="36" height="32" fill="white" transform="translate(11 11)"/>
</clipPath>
</defs>
</svg>
