<svg width="36" height="36" viewBox="0 0 36 36" fill="none" xmlns="http://www.w3.org/2000/svg">
<path d="M25.2564 6.75C26.0755 6.74931 26.8864 6.91215 27.6418 7.22896C28.3971 7.54578 29.0816 8.0102 29.6551 8.595C30.8368 9.79468 31.4992 11.4111 31.4992 13.095C31.4992 14.779 30.8368 16.3953 29.6551 17.595L18.0001 29.3963L6.34511 17.595C5.16339 16.3953 4.501 14.779 4.501 13.095C4.501 11.4111 5.16339 9.79468 6.34511 8.595C6.91897 8.01062 7.60351 7.54645 8.35876 7.22958C9.11402 6.91272 9.92483 6.74952 10.7439 6.74952C11.5629 6.74952 12.3737 6.91272 13.129 7.22958C13.8842 7.54645 14.5688 8.01062 15.1426 8.595L18.0001 11.52L20.8464 8.6175C21.4181 8.02573 22.1034 7.55535 22.8611 7.23447C23.6188 6.9136 24.4335 6.74882 25.2564 6.75ZM25.2564 4.5C24.1377 4.49905 23.0301 4.72147 21.9985 5.15419C20.9669 5.58692 20.0321 6.22126 19.2489 7.02L18.0001 8.28L16.7514 7.02C15.9672 6.2227 15.0321 5.58946 14.0007 5.15722C12.9693 4.72497 11.8622 4.50236 10.7439 4.50236C9.62554 4.50236 8.51841 4.72497 7.487 5.15722C6.45559 5.58946 5.52055 6.2227 4.73636 7.02C3.14098 8.64408 2.24707 10.8297 2.24707 13.1063C2.24707 15.3828 3.14098 17.5684 4.73636 19.1925L18.0001 32.625L31.2639 19.1925C32.8593 17.5684 33.7532 15.3828 33.7532 13.1063C33.7532 10.8297 32.8593 8.64408 31.2639 7.02C30.4795 6.22277 29.5445 5.58944 28.5131 5.15682C27.4818 4.7242 26.3748 4.50094 25.2564 4.5Z" fill="#3794FE" fill-opacity="0.5"/>
</svg>
