<svg width="123" height="62" viewBox="0 0 123 62" fill="none" xmlns="http://www.w3.org/2000/svg">
<path d="M94.5 24.4697V0H99.1143L109.444 16.7617V0H113.709V24.4697H109.112L98.7647 7.70795V24.4697H94.5Z" fill="#3794FE"/>
<path d="M73.7246 24.4697V0H83.1105C84.4388 0 85.639 0.332089 86.711 0.996266C87.783 1.66044 88.6336 2.55184 89.2629 3.67045C89.8921 4.77741 90.2067 6.00673 90.2067 7.35838C90.2067 8.46535 90.0028 9.48492 89.5949 10.4171C89.1988 11.3376 88.6395 12.1358 87.917 12.8116C87.2062 13.4875 86.3848 14.0002 85.4526 14.3497L91.3078 24.4697H86.3964L80.7334 14.7342H77.9893V24.4697H73.7246ZM77.9893 10.4695H82.6211C83.227 10.4695 83.7805 10.318 84.2815 10.0151C84.7826 9.71213 85.1846 9.3043 85.4875 8.79161C85.7905 8.27891 85.942 7.70795 85.942 7.07873C85.942 6.43786 85.7905 5.86107 85.4875 5.34837C85.1846 4.83568 84.7826 4.42785 84.2815 4.12489C83.7805 3.82193 83.227 3.67045 82.6211 3.67045H77.9893V10.4695Z" fill="#3794FE"/>
<path d="M53.8421 24.4697L53.8418 0H69.7831V4.26472H58.7018V9.22857H67.4934V13.4933H58.7018V20.205H69.7831V24.4697H53.8421Z" fill="#3794FE"/>
<path d="M50.9459 0V4.26472H43.4652V24.4697H39.2005V4.26472H31.7197V0H50.9459Z" fill="#3794FE"/>
<path d="M9 24.4697V0H13.6143L23.944 16.7617V0H28.2087V24.4697H23.6119L13.2647 7.70795V24.4697H9Z" fill="#3794FE"/>
<path d="M0 24.4697V0H4.26472V24.4697H0Z" fill="#3794FE"/>
<path d="M108.185 61.8887H103.92V35.6712H108.185V37.891C108.756 37.0986 109.455 36.4578 110.282 35.9684C111.121 35.4673 112.1 35.2168 113.218 35.2168C114.5 35.2168 115.695 35.4557 116.801 35.9334C117.908 36.4111 118.881 37.0753 119.72 37.9259C120.571 38.7649 121.229 39.7379 121.695 40.8448C122.173 41.9518 122.412 43.1403 122.412 44.4104C122.412 45.6805 122.173 46.8748 121.695 47.9935C121.229 49.1121 120.571 50.0967 119.72 50.9473C118.881 51.7863 117.908 52.4446 116.801 52.9224C115.695 53.4001 114.5 53.639 113.218 53.639C112.1 53.639 111.121 53.3943 110.282 52.9049C109.455 52.4038 108.756 51.7571 108.185 50.9648V61.8887ZM113.166 39.3242C112.28 39.3242 111.488 39.5573 110.789 40.0233C110.09 40.4778 109.542 41.0895 109.146 41.8586C108.75 42.6276 108.552 43.4782 108.552 44.4104C108.552 45.3426 108.75 46.199 109.146 46.9797C109.542 47.7488 110.09 48.3663 110.789 48.8324C111.488 49.2869 112.28 49.5141 113.166 49.5141C114.063 49.5141 114.885 49.2869 115.63 48.8324C116.376 48.378 116.97 47.7662 117.413 46.9972C117.856 46.2165 118.077 45.3542 118.077 44.4104C118.077 43.4782 117.856 42.6276 117.413 41.8586C116.97 41.0895 116.376 40.4778 115.63 40.0233C114.896 39.5573 114.075 39.3242 113.166 39.3242Z" fill="#3794FE"/>
<path d="M94.5 35.6243H98.8346V52.9645H94.5V35.6243ZM96.7372 33.3696C96.108 33.3696 95.5778 33.1657 95.1467 32.7578C94.7156 32.3384 94.5 31.814 94.5 31.1848C94.5 30.5672 94.7156 30.0487 95.1467 29.6292C95.5778 29.2097 96.1022 29 96.7197 29C97.3373 29 97.8558 29.2097 98.2753 29.6292C98.7065 30.0487 98.922 30.5672 98.922 31.1848C98.922 31.814 98.7123 32.3384 98.2928 32.7578C97.8733 33.1657 97.3548 33.3696 96.7372 33.3696Z" fill="#3794FE"/>
<path d="M89.4993 42.1036V53.1499H85.2346V43.2222C85.2346 42.5348 85.0656 41.9114 84.7277 41.3521C84.3898 40.7811 83.9354 40.3325 83.3644 40.0062C82.8051 39.6683 82.1817 39.4994 81.4942 39.4994C80.8068 39.4994 80.1775 39.6683 79.6066 40.0062C79.0473 40.3325 78.5987 40.7811 78.2607 41.3521C78.0422 42.0839 78.0422 42.5348 78.0422 43.2222V53.1499H73.3662V0L78 0.00012207L78.0422 37.4079C78.0422 36.8234 79.0764 36.1027 79.9037 35.7415C80.731 35.3686 81.6224 35.1822 82.5779 35.1822C83.848 35.1822 85.0074 35.4968 86.0561 36.126C87.1048 36.7436 87.9379 37.5767 88.5555 38.6254C89.1847 39.6625 89.4993 40.8219 89.4993 42.1036Z" fill="#3794FE"/>
<path d="M61.3796 53.4644C60.4707 53.4061 59.591 53.2255 58.7404 52.9225C57.9014 52.6079 57.1557 52.1826 56.5031 51.6466C55.8506 51.1106 55.3496 50.4697 55 49.724L58.6005 48.1859C58.7404 48.4189 58.9676 48.6695 59.2822 48.9375C59.5968 49.1938 59.9697 49.4094 60.4008 49.5842C60.8436 49.759 61.3272 49.8463 61.8515 49.8463C62.2943 49.8463 62.7138 49.7881 63.1099 49.6716C63.5178 49.5434 63.844 49.3511 64.0887 49.0948C64.3451 48.8384 64.4733 48.5063 64.4733 48.0985C64.4733 47.6674 64.3218 47.3353 64.0188 47.1022C63.7275 46.8576 63.3546 46.6769 62.9002 46.5604C62.4574 46.4322 62.0263 46.3157 61.6068 46.2109C60.4999 45.9895 59.4686 45.6457 58.5131 45.1796C57.5693 44.7135 56.8061 44.1135 56.2235 43.3794C55.6525 42.6336 55.367 41.7364 55.367 40.6877C55.367 39.5341 55.67 38.5379 56.2759 37.6989C56.8935 36.8599 57.6917 36.2132 58.6705 35.7588C59.6609 35.3044 60.7271 35.0771 61.869 35.0771C63.2556 35.0771 64.5257 35.3685 65.6793 35.9511C66.8445 36.522 67.765 37.3319 68.4408 38.3806L65.0675 40.3731C64.9044 40.0934 64.6772 39.8371 64.3859 39.604C64.0946 39.3593 63.7625 39.1613 63.3896 39.0098C63.0167 38.8466 62.6264 38.7534 62.2186 38.7301C61.6942 38.7068 61.2165 38.7534 60.7853 38.8699C60.3542 38.9865 60.0046 39.1846 59.7366 39.4642C59.4803 39.7439 59.3521 40.1167 59.3521 40.5828C59.3521 41.0256 59.5269 41.3577 59.8765 41.5791C60.226 41.7888 60.6455 41.952 61.1349 42.0685C61.6359 42.185 62.1137 42.3132 62.5681 42.453C63.5935 42.7909 64.5548 43.2046 65.452 43.694C66.3609 44.1834 67.0892 44.7835 67.6368 45.4942C68.1845 46.205 68.4467 47.0556 68.4234 48.0461C68.4234 49.1763 68.0855 50.1668 67.4096 51.0174C66.7338 51.8564 65.8599 52.4972 64.7879 52.94C63.7275 53.3828 62.5914 53.5576 61.3796 53.4644Z" fill="#3794FE"/>
</svg>
