<svg width="48" height="48" viewBox="0 0 48 48" fill="none" xmlns="http://www.w3.org/2000/svg">
<rect width="48" height="48" rx="8" fill="#3794FE"/>
<path d="M38.4439 11.7714L36.2286 9.556C35.4871 8.81467 34.2808 8.81467 33.5394 9.556C33.4594 9.63923 33.4152 9.7505 33.4164 9.86592C33.4175 9.98134 33.4639 10.0917 33.5455 10.1733C33.6271 10.255 33.7375 10.3013 33.8529 10.3025C33.9683 10.3036 34.0796 10.2595 34.1628 10.1795C34.5605 9.78183 35.2073 9.78183 35.6051 10.1795L37.8205 12.3948C38.2182 12.7926 38.2182 13.4396 37.8206 13.8373L36.2155 15.4423L32.5577 11.7844L32.8763 11.4659C32.9172 11.4249 32.9497 11.3763 32.9719 11.3229C32.994 11.2694 33.0054 11.2121 33.0054 11.1542C33.0054 11.0963 32.994 11.039 32.9719 10.9855C32.9497 10.932 32.9173 10.8834 32.8763 10.8425C32.8354 10.8015 32.7868 10.7691 32.7333 10.7469C32.6799 10.7247 32.6225 10.7133 32.5647 10.7133C32.5068 10.7133 32.4495 10.7247 32.396 10.7469C32.3425 10.769 32.2939 10.8015 32.253 10.8424L26.2373 16.8579C25.9563 16.746 25.6697 16.6487 25.3786 16.5665L25.0454 14.2187C25.0304 14.1135 24.9781 14.0173 24.8979 13.9477C24.8177 13.8781 24.7151 13.8398 24.6089 13.8398H21.3842C21.278 13.8398 21.1754 13.8781 21.0952 13.9477C21.015 14.0173 20.9626 14.1135 20.9477 14.2187L20.6145 16.5666C19.9496 16.7535 19.3093 17.0187 18.7071 17.3567L16.8111 15.9322C16.7262 15.8684 16.6211 15.8374 16.5152 15.8449C16.4093 15.8523 16.3097 15.8978 16.2346 15.9728L13.9544 18.253C13.8793 18.3281 13.8338 18.4277 13.8263 18.5337C13.8188 18.6396 13.8498 18.7446 13.9136 18.8295L15.3382 20.7256C15.0002 21.3278 14.7349 21.9681 14.5481 22.6329L12.2001 22.9662C12.0949 22.9811 11.9987 23.0335 11.9291 23.1137C11.8595 23.1939 11.8212 23.2965 11.8212 23.4027V26.6274C11.8212 26.7336 11.8595 26.8362 11.9291 26.9164C11.9987 26.9966 12.0949 27.0489 12.2001 27.0639L14.5482 27.3971C14.6306 27.6881 14.7279 27.9746 14.8398 28.2555L11.4648 31.6305C11.4076 31.6879 11.3674 31.76 11.3486 31.8389L10.1163 35.3253L9.0252 38.4123C8.99747 38.4908 8.99251 38.5755 9.01089 38.6566C9.02928 38.7378 9.07025 38.8121 9.12908 38.871C9.18795 38.9298 9.26225 38.9707 9.34341 38.9891C9.42457 39.0075 9.50928 39.0025 9.58773 38.9748L16.1611 36.6514C16.24 36.6327 16.3122 36.5924 16.3696 36.5351L19.7397 33.1649C20.0258 33.2796 20.3178 33.3791 20.6144 33.463L20.9477 35.8111C20.9626 35.9163 21.015 36.0125 21.0951 36.0821C21.1753 36.1517 21.278 36.19 21.3841 36.19H24.6088C24.715 36.19 24.8176 36.1517 24.8978 36.0821C24.978 36.0125 25.0304 35.9163 25.0453 35.8111L25.3785 33.4632C26.0434 33.2763 26.6837 33.0111 27.2859 32.6731L29.182 34.0976C29.2669 34.1614 29.3719 34.1924 29.4778 34.1849C29.5837 34.1774 29.6834 34.132 29.7585 34.057L32.0386 31.7767C32.1137 31.7016 32.1592 31.602 32.1666 31.496C32.1741 31.3901 32.1431 31.2851 32.0793 31.2002L30.6548 29.3042C30.9928 28.702 31.258 28.0617 31.4449 27.3968L33.7928 27.0636C33.898 27.0487 33.9942 26.9963 34.0638 26.9161C34.1334 26.8359 34.1717 26.7333 34.1717 26.6271V23.4024C34.1717 23.2962 34.1333 23.1936 34.0637 23.1134C33.9941 23.0333 33.8979 22.9809 33.7928 22.9659L31.4449 22.6326C31.3611 22.3359 31.2617 22.0438 31.147 21.7575L38.444 14.4606C39.1853 13.7193 39.1853 12.5129 38.4439 11.7714ZM10.1639 37.836L10.7145 36.2783L11.7217 37.2855L10.1639 37.836ZM12.643 36.9599L11.0401 35.3571L11.9614 32.7504L15.2496 36.0386L12.643 36.9599ZM33.29 23.7852V26.2446L31.031 26.5652C30.9438 26.5776 30.8623 26.6158 30.797 26.6749C30.7317 26.7341 30.6857 26.8114 30.6648 26.897C30.4745 27.6759 30.1658 28.421 29.7496 29.1063C29.7038 29.1815 29.6817 29.2688 29.6861 29.3568C29.6904 29.4447 29.721 29.5294 29.774 29.5998L31.1446 31.4239L29.4056 33.1629L27.5815 31.7923C27.5111 31.7394 27.4264 31.7088 27.3385 31.7044C27.2505 31.7001 27.1632 31.7222 27.088 31.7679C26.4027 32.1842 25.6576 32.4928 24.8787 32.6831C24.7931 32.704 24.7158 32.7501 24.6566 32.8154C24.5975 32.8806 24.5593 32.9621 24.5469 33.0493L24.2263 35.3083H21.7669L21.4463 33.0493C21.434 32.9621 21.3958 32.8806 21.3366 32.8153C21.2775 32.7501 21.2001 32.704 21.1146 32.6831C20.8817 32.6261 20.6516 32.5582 20.425 32.4797L22.8345 30.0703C22.8908 30.0724 22.9442 30.0734 22.9967 30.0734C25.786 30.0734 28.0552 27.8042 28.0552 25.0148C28.0552 24.8926 28.0494 24.7718 28.0408 24.6517L28.0407 24.6487C28.0405 24.6457 28.0401 24.6427 28.0398 24.6396C28.0344 24.565 28.0273 24.4905 28.0186 24.4162L28.0184 24.415C27.7344 22.0236 25.7765 20.1395 23.3523 19.9701C23.348 19.9698 23.3438 19.9692 23.3395 19.9689L23.3367 19.9688C23.2235 19.9608 23.1101 19.9566 22.9966 19.9561C20.2073 19.9561 17.9381 22.2254 17.9381 25.0147C17.9381 25.0602 17.9388 25.1064 17.9404 25.1549L17.2602 25.8352C17.2192 25.8761 17.1866 25.9247 17.1645 25.9782C17.1423 26.0317 17.131 26.0891 17.131 26.147C17.1309 26.2125 17.1455 26.2772 17.1736 26.3364C17.2018 26.3955 17.2428 26.4477 17.2937 26.4889C17.355 26.5387 17.4285 26.5712 17.5066 26.5829C17.5848 26.5946 17.6646 26.5851 17.7378 26.5555C17.7924 26.5333 17.842 26.5004 17.8836 26.4587L23.4759 20.8663C25.3844 21.0855 26.9144 22.608 27.1426 24.5153L25.7626 25.8953C25.6819 25.9784 25.6372 26.0899 25.6381 26.2057C25.639 26.3215 25.6853 26.4323 25.7672 26.5142C25.8491 26.596 25.9599 26.6424 26.0757 26.6433C26.1915 26.6442 26.3029 26.5994 26.386 26.5188L27.0972 25.8076C26.7752 27.4761 25.4578 28.7935 23.7893 29.1155L25.1345 27.7704C25.2151 27.6873 25.2598 27.5758 25.259 27.46C25.2581 27.3443 25.2117 27.2335 25.1299 27.1516C25.048 27.0697 24.9372 27.0233 24.8214 27.0225C24.7056 27.0216 24.5941 27.0663 24.511 27.1469L16.0579 35.6L12.4 31.9421L16.6319 27.7103C16.6729 27.6695 16.7054 27.6209 16.7276 27.5674C16.7498 27.5139 16.7611 27.4565 16.761 27.3986C16.7611 27.3407 16.7497 27.2834 16.7275 27.2299C16.7054 27.1764 16.6729 27.1278 16.6319 27.0869C16.5903 27.0452 16.5407 27.0123 16.4861 26.9901C16.4198 26.9633 16.348 26.953 16.2769 26.96C16.2057 26.967 16.1374 26.9912 16.0776 27.0305C16.0527 27.0469 16.0295 27.0659 16.0084 27.087L15.5257 27.5696C15.4497 27.3485 15.3838 27.1241 15.3281 26.897C15.3072 26.8115 15.2611 26.7341 15.1959 26.675C15.1306 26.6159 15.0491 26.5776 14.9619 26.5652L12.7029 26.2446V23.7853L14.9619 23.4646C15.0491 23.4522 15.1306 23.414 15.1959 23.3549C15.2611 23.2958 15.3072 23.2185 15.3281 23.133C15.5184 22.3541 15.8271 21.609 16.2433 20.9237C16.289 20.8484 16.3112 20.7611 16.3068 20.6731C16.3025 20.5852 16.2718 20.5005 16.2189 20.4301L14.8483 18.6059L16.5873 16.8669L18.4115 18.2375C18.4819 18.2904 18.5665 18.321 18.6545 18.3254C18.7425 18.3297 18.8297 18.3076 18.905 18.2619C19.5903 17.8457 20.3354 17.537 21.1143 17.3467C21.1998 17.3258 21.2772 17.2797 21.3363 17.2144C21.3954 17.1492 21.4337 17.0677 21.446 16.9805L21.7667 14.7215H24.226L24.5466 16.9804C24.559 17.0676 24.5972 17.1491 24.6563 17.2143C24.7154 17.2796 24.7927 17.3257 24.8783 17.3466C25.3176 17.4545 25.7468 17.6002 26.1611 17.7821L26.1626 17.7828C26.2432 17.8182 26.3229 17.8547 26.4018 17.8922L26.4062 17.8944C26.4809 17.93 26.5545 17.9668 26.6274 18.0043C26.6471 18.0145 26.6667 18.0252 26.6863 18.0356C26.7426 18.0653 26.7986 18.0951 26.8537 18.1258C26.9325 18.1699 27.0105 18.2152 27.0877 18.2619C27.163 18.3076 27.2503 18.3297 27.3383 18.3253C27.4263 18.321 27.5109 18.2904 27.5813 18.2374L29.4055 16.8668L31.1445 18.6057L29.7738 20.4299C29.7209 20.5003 29.6903 20.585 29.6859 20.673C29.6816 20.761 29.7037 20.8483 29.7495 20.9235C29.796 21.0001 29.8405 21.0776 29.8843 21.1555C29.9137 21.2081 29.9422 21.2615 29.9706 21.3152C29.982 21.3367 29.9937 21.3582 30.0049 21.3798C30.0411 21.4498 30.0763 21.5203 30.1104 21.5914L30.115 21.601C30.1519 21.6779 30.1875 21.7555 30.2219 21.8336C30.2222 21.8343 30.2227 21.8349 30.223 21.8357C30.4078 22.2544 30.5556 22.6884 30.6648 23.1329C30.6857 23.2185 30.7317 23.2958 30.797 23.355C30.8623 23.4141 30.9438 23.4523 31.031 23.4647L33.29 23.7852ZM22.176 20.9193L18.9009 24.1945C19.2302 22.5482 20.5298 21.2486 22.176 20.9193ZM30.7522 20.9055C30.7205 20.8451 30.688 20.7851 30.6548 20.7255L32.0793 18.8294C32.143 18.7445 32.174 18.6395 32.1666 18.5336C32.1591 18.4276 32.1136 18.328 32.0386 18.2529L29.7584 15.9727C29.6834 15.8976 29.5837 15.8522 29.4778 15.8447C29.3719 15.8372 29.2668 15.8682 29.1819 15.932L27.2859 17.3566C27.2214 17.3206 27.1564 17.2854 27.091 17.251L29.6179 14.7241L33.2757 18.3819L30.7522 20.9055ZM33.8993 17.7585L30.2415 14.1007L31.9342 12.4079L35.592 16.0658L33.8993 17.7585Z" fill="white"/>
<path d="M25.9189 19.2012C26.7607 19.5379 28.5453 20.6962 28.9494 22.6357" stroke="white" stroke-width="4" stroke-linecap="round"/>
<ellipse cx="29.1521" cy="24.2517" rx="0.40406" ry="0.404061" fill="white"/>
</svg>
